<?xml version="1.0" encoding="UTF-8"?>
<svg xmlns="http://www.w3.org/2000/svg" xmlns:xlink="http://www.w3.org/1999/xlink" width="97px" height="50px" viewBox="0 0 97 50" version="1.1">
<g id="surface1">
<path style=" stroke:none;fill-rule:nonzero;fill:rgb(0%,0%,0%);fill-opacity:1;" d="M 8.40625 0 L 88.59375 0 L 88.59375 50 L 8.40625 50 Z M 8.40625 0 "/>
<path style=" stroke:none;fill-rule:nonzero;fill:rgb(71.764706%,60.392157%,39.607843%);fill-opacity:1;" d="M 56.339844 13.0625 L 56.527344 13.085938 L 56.671875 13.207031 L 56.621094 13.328125 L 56.242188 13.402344 L 53.402344 13.648438 L 52.785156 13.769531 L 52.265625 13.964844 L 51.933594 14.109375 L 51.648438 14.304688 L 51.367188 14.601562 L 51.128906 15.0625 L 51.035156 15.429688 L 50.988281 16.089844 L 50.9375 17.429688 L 50.9375 29.101562 L 50.84375 30.152344 L 50.988281 30.078125 L 51.601562 29.371094 L 52.074219 28.785156 L 52.785156 27.953125 L 53.210938 27.441406 L 54.113281 26.34375 L 55.058594 25.171875 L 55.863281 24.171875 L 56.386719 23.535156 L 58.234375 21.3125 L 59.179688 20.164062 L 59.84375 19.3125 L 60.601562 18.261719 L 61.121094 17.503906 L 61.738281 16.601562 L 61.976562 16.210938 L 62.117188 16.0625 L 62.304688 16.039062 L 62.683594 16.089844 L 64.722656 16.136719 L 68.132812 16.136719 L 69.789062 16.0625 L 71.589844 15.96875 L 72.253906 15.941406 L 72.488281 15.992188 L 72.441406 16.113281 L 72.207031 16.257812 L 71.828125 16.332031 L 69.222656 16.480469 L 68.558594 16.554688 L 68.085938 16.648438 L 67.421875 16.871094 L 67.089844 17.039062 L 66.757812 17.335938 L 66.523438 17.75 L 66.425781 18.238281 L 66.378906 18.652344 L 66.332031 19.507812 L 66.332031 20.433594 L 66.425781 22.582031 L 66.570312 27.269531 L 66.710938 30.640625 L 66.804688 32.179688 L 66.902344 32.984375 L 67.089844 33.617188 L 67.328125 34.007812 L 67.5625 34.226562 L 67.988281 34.472656 L 68.511719 34.644531 L 69.269531 34.8125 L 69.933594 34.886719 L 71.589844 34.960938 L 72.207031 34.960938 L 72.679688 34.984375 L 72.867188 35.058594 L 72.914062 35.15625 L 72.914062 35.398438 L 72.820312 35.425781 L 72.394531 35.425781 L 71.730469 35.375 L 68.890625 35.277344 L 67.894531 35.253906 L 66.144531 35.230469 L 62.117188 35.230469 L 60.175781 35.277344 L 57.523438 35.425781 L 57.097656 35.425781 L 57 35.375 L 57.050781 35.230469 L 57.285156 35.082031 L 57.523438 35.035156 L 59.652344 34.886719 L 60.316406 34.8125 L 60.839844 34.617188 L 61.265625 34.375 L 61.597656 34.007812 L 61.785156 33.714844 L 61.976562 33.15625 L 62.070312 32.542969 L 62.070312 28.417969 L 62.023438 26.976562 L 61.925781 24.851562 L 61.832031 20.921875 L 61.785156 19.628906 L 61.738281 19.214844 L 61.359375 19.605469 L 61.074219 19.945312 L 60.601562 20.554688 L 59.511719 21.875 L 58.613281 22.972656 L 56.339844 25.707031 L 55.722656 26.441406 L 54.917969 27.441406 L 53.355469 29.320312 L 52.550781 30.273438 L 51.746094 31.25 L 51.175781 31.957031 L 51.035156 32.226562 L 50.9375 32.835938 L 50.890625 33.9375 L 50.796875 34.570312 L 50.558594 35.667969 L 50.371094 36.253906 L 50.039062 36.960938 L 49.660156 37.597656 L 49.28125 38.109375 L 48.617188 38.820312 L 48.003906 39.40625 L 47.527344 39.769531 L 46.960938 40.160156 L 46.535156 40.429688 L 46.109375 40.671875 L 45.113281 41.1875 L 44.734375 41.359375 L 44.070312 41.648438 L 43.21875 41.96875 L 42.273438 42.285156 L 41.417969 42.53125 L 40.378906 42.820312 L 39.382812 43.089844 L 38.625 43.261719 L 37.535156 43.53125 L 36.824219 43.675781 L 36.636719 43.628906 L 36.589844 43.601562 L 36.589844 43.433594 L 36.730469 43.3125 L 37.726562 43.089844 L 38.671875 42.847656 L 39.429688 42.601562 L 40.140625 42.359375 L 40.660156 42.164062 L 41.183594 41.945312 L 41.65625 41.699219 L 42.035156 41.527344 L 42.554688 41.257812 L 42.886719 41.0625 L 43.3125 40.796875 L 43.644531 40.527344 L 44.261719 39.917969 L 44.6875 39.429688 L 45.207031 38.625 L 45.492188 38.011719 L 45.777344 37.230469 L 46.109375 35.914062 L 46.34375 34.691406 L 46.34375 34.328125 L 46.15625 33.835938 L 45.917969 33.519531 L 45.398438 32.933594 L 44.6875 32.152344 L 44.261719 31.664062 L 43.410156 30.761719 L 42.699219 29.957031 L 41.941406 29.101562 L 41.515625 28.613281 L 40.660156 27.660156 L 39.949219 26.855469 L 39.097656 25.929688 L 38.386719 25.121094 L 37.773438 24.4375 L 36.871094 23.4375 L 36.160156 22.632812 L 35.5 21.921875 L 35.121094 21.484375 L 34.550781 20.851562 L 34.171875 20.410156 L 33.886719 20.117188 L 33.839844 20.191406 L 33.839844 21.410156 L 33.792969 22.679688 L 33.699219 24.046875 L 33.652344 25.074219 L 33.605469 26.929688 L 33.460938 30.90625 L 33.460938 32.46875 L 33.605469 33.324219 L 33.792969 33.8125 L 34.171875 34.203125 L 34.597656 34.449219 L 35.023438 34.59375 L 35.925781 34.8125 L 36.636719 34.914062 L 38.339844 34.984375 L 38.765625 35.007812 L 38.8125 35.035156 L 38.8125 35.328125 L 38.625 35.449219 L 38.152344 35.398438 L 37.535156 35.328125 L 37.109375 35.351562 L 36.636719 35.328125 L 35.5 35.277344 L 33.699219 35.230469 L 29.578125 35.230469 L 27.117188 35.328125 L 26.214844 35.398438 L 25.789062 35.398438 L 25.695312 35.328125 L 25.695312 35.15625 L 25.835938 35.035156 L 25.929688 35.007812 L 26.832031 34.984375 L 28.15625 34.886719 L 28.867188 34.789062 L 29.910156 34.496094 L 30.289062 34.300781 L 30.621094 34.03125 L 30.855469 33.765625 L 31.09375 33.324219 L 31.1875 32.960938 L 31.285156 32.300781 L 31.472656 29.34375 L 31.566406 27.808594 L 31.710938 24.242188 L 31.757812 21.875 L 31.804688 20.53125 L 31.804688 19.1875 L 31.710938 18.773438 L 31.519531 18.40625 L 31.1875 17.992188 L 30.761719 17.601562 L 30.242188 17.285156 L 29.769531 17.066406 L 29.058594 16.820312 L 28.347656 16.648438 L 27.445312 16.503906 L 26.074219 16.359375 L 25.457031 16.308594 L 25.078125 16.1875 L 25.078125 16.0625 L 25.222656 15.992188 L 26.027344 15.992188 L 28.394531 16.089844 L 32.136719 16.164062 L 35.023438 16.164062 L 35.355469 16.136719 L 35.546875 16.234375 L 36.066406 16.796875 L 36.589844 17.382812 L 37.441406 18.359375 L 37.773438 18.75 L 38.339844 19.410156 L 39.050781 20.164062 L 39.667969 20.851562 L 40.898438 22.265625 L 41.75 23.242188 L 42.367188 23.949219 L 42.933594 24.609375 L 43.738281 25.488281 L 44.308594 26.125 L 45.019531 26.976562 L 45.398438 27.441406 L 45.964844 28.148438 L 46.25 28.394531 L 46.34375 28.417969 L 46.34375 17.382812 L 46.296875 15.84375 L 46.15625 15.28125 L 45.871094 14.671875 L 45.632812 14.355469 L 45.304688 14.109375 L 45.066406 13.964844 L 44.402344 13.746094 L 43.738281 13.648438 L 42.035156 13.523438 L 40.945312 13.429688 L 40.613281 13.355469 L 40.566406 13.183594 L 40.660156 13.132812 L 41.515625 13.132812 L 44.355469 13.234375 L 45.398438 13.257812 L 47.292969 13.28125 L 50.65625 13.28125 L 52.929688 13.234375 L 55.535156 13.132812 Z M 56.339844 13.0625 "/>
<path style=" stroke:none;fill-rule:nonzero;fill:rgb(71.764706%,60.392157%,39.607843%);fill-opacity:1;" d="M 48.664062 5.8125 L 48.855469 5.835938 L 49.28125 6.371094 L 49.800781 6.789062 L 50.371094 7.300781 L 50.75 7.8125 L 50.84375 8.15625 L 50.84375 8.546875 L 50.703125 9.15625 L 50.511719 9.375 L 50.132812 9.765625 L 50.132812 10.007812 L 50.324219 10.15625 L 50.609375 10.230469 L 50.796875 10.253906 L 51.414062 10.253906 L 51.746094 10.203125 L 51.886719 9.863281 L 51.746094 9.617188 L 51.507812 9.496094 L 51.175781 9.421875 L 51.128906 9.375 L 51.128906 9.15625 L 51.316406 8.691406 L 51.554688 8.398438 L 51.886719 8.179688 L 52.125 8.082031 L 52.644531 7.984375 L 52.976562 8.007812 L 53.402344 8.105469 L 53.589844 8.082031 L 53.78125 7.960938 L 54.113281 7.496094 L 54.445312 7.300781 L 55.34375 7.054688 L 55.769531 7.007812 L 56.148438 7.007812 L 56.527344 7.03125 L 57.570312 7.007812 L 57.757812 7.054688 L 57.710938 7.179688 L 57.332031 7.445312 L 56.859375 7.765625 L 56.292969 8.277344 L 55.914062 8.691406 L 55.484375 9.300781 L 55.203125 9.914062 L 54.964844 10.523438 L 54.871094 11.058594 L 54.917969 11.867188 L 54.824219 11.890625 L 42.460938 11.867188 L 42.414062 11.839844 L 42.460938 11.621094 L 42.554688 11.351562 L 42.554688 10.863281 L 42.273438 9.9375 L 41.84375 9.253906 L 41.324219 8.496094 L 41.039062 8.128906 L 40.378906 7.617188 L 40 7.347656 L 39.855469 7.152344 L 39.855469 7.03125 L 40.992188 7.007812 L 41.988281 7.054688 L 42.507812 7.152344 L 43.03125 7.347656 L 43.359375 7.519531 L 43.550781 7.738281 L 43.691406 8.03125 L 44.070312 8.054688 L 44.355469 7.984375 L 44.78125 8.007812 L 45.253906 8.105469 L 45.683594 8.300781 L 46.15625 8.835938 L 46.34375 9.328125 L 46.296875 9.398438 L 45.824219 9.546875 L 45.585938 9.691406 L 45.539062 9.742188 L 45.539062 9.984375 L 45.871094 10.203125 L 46.0625 10.253906 L 46.628906 10.253906 L 47.007812 10.15625 L 47.246094 10.058594 L 47.292969 10.007812 L 47.246094 9.789062 L 47.007812 9.496094 L 46.867188 9.351562 L 46.582031 8.789062 L 46.488281 8.570312 L 46.488281 8.082031 L 46.867188 7.496094 L 47.339844 7.03125 L 47.957031 6.519531 L 48.335938 6.175781 Z M 48.664062 5.8125 "/>
<path style=" stroke:none;fill-rule:nonzero;fill:rgb(96.078431%,84.313725%,63.921569%);fill-opacity:1;" d="M 49.753906 37.207031 L 49.800781 37.207031 L 49.753906 37.453125 L 49.328125 38.0625 L 48.570312 38.867188 L 48.003906 39.40625 L 47.527344 39.769531 L 46.960938 40.160156 L 46.535156 40.429688 L 46.109375 40.671875 L 45.113281 41.1875 L 44.734375 41.359375 L 44.070312 41.648438 L 43.21875 41.96875 L 42.273438 42.285156 L 41.417969 42.53125 L 40.378906 42.820312 L 39.382812 43.089844 L 38.625 43.261719 L 37.535156 43.53125 L 36.824219 43.675781 L 36.636719 43.628906 L 36.589844 43.601562 L 36.589844 43.433594 L 36.730469 43.3125 L 37.726562 43.089844 L 38.671875 42.847656 L 39.429688 42.601562 L 40 42.40625 L 40.328125 42.335938 L 40.804688 42.164062 L 40.945312 42.164062 L 40.945312 42.113281 L 41.417969 41.96875 L 41.5625 41.992188 L 42.222656 41.820312 L 43.078125 41.554688 L 43.3125 41.480469 L 43.410156 41.480469 L 43.410156 41.429688 L 43.738281 41.332031 L 44.355469 41.089844 L 45.539062 40.476562 L 45.632812 40.476562 L 45.683594 40.40625 L 45.777344 40.40625 L 45.777344 40.355469 L 45.917969 40.28125 L 46.011719 40.28125 L 46.0625 40.210938 L 46.296875 40.085938 L 46.628906 39.890625 L 46.867188 39.796875 L 47.148438 39.574219 L 47.527344 39.40625 L 47.957031 39.109375 L 48.429688 38.695312 L 48.617188 38.574219 L 48.902344 38.304688 L 49.28125 37.890625 L 49.566406 37.5 Z M 49.753906 37.207031 "/>
<path style=" stroke:none;fill-rule:nonzero;fill:rgb(87.843137%,74.117647%,52.941176%);fill-opacity:1;" d="M 61.21875 19.53125 L 61.3125 19.53125 L 61.265625 19.703125 L 60.742188 20.386719 L 60.03125 21.242188 L 59.085938 22.386719 L 58.234375 23.4375 L 57.191406 24.683594 L 55.484375 26.734375 L 54.917969 27.441406 L 53.355469 29.320312 L 52.550781 30.273438 L 51.746094 31.25 L 51.175781 31.957031 L 51.082031 32.105469 L 50.988281 32.105469 L 50.9375 32.324219 L 50.890625 32.46875 L 50.796875 32.398438 L 50.796875 32.128906 L 51.128906 31.640625 L 51.460938 31.175781 L 51.839844 30.785156 L 52.171875 30.394531 L 52.503906 30.03125 L 52.738281 29.734375 L 52.832031 29.664062 L 52.929688 29.664062 L 52.976562 29.445312 L 53.164062 29.222656 L 53.449219 28.90625 L 53.589844 28.664062 L 53.640625 28.492188 L 53.78125 28.320312 L 53.875 28.320312 L 53.96875 28.101562 L 54.066406 27.90625 L 54.253906 27.585938 L 54.445312 27.367188 L 55.058594 26.636719 L 55.34375 26.292969 L 55.628906 25.902344 L 56.195312 25.195312 L 56.527344 24.828125 L 57.050781 24.171875 L 57.523438 23.609375 L 57.996094 23.070312 L 58.28125 22.703125 L 58.566406 22.265625 L 58.894531 21.898438 L 59.132812 21.605469 L 59.605469 21.09375 L 59.890625 20.777344 L 60.128906 20.460938 L 60.363281 20.214844 L 60.601562 19.945312 L 60.839844 19.824219 L 61.167969 19.554688 Z M 61.21875 19.53125 "/>
<path style=" stroke:none;fill-rule:nonzero;fill:rgb(88.627451%,74.901961%,53.72549%);fill-opacity:1;" d="M 62.164062 16.039062 L 62.683594 16.089844 L 62.828125 16.113281 L 63.394531 16.136719 L 63.394531 16.164062 L 62.734375 16.1875 L 62.304688 16.257812 L 62.070312 16.527344 L 61.121094 17.796875 L 60.980469 18.015625 L 60.648438 18.480469 L 60.222656 19.289062 L 60.175781 19.382812 L 60.128906 19.605469 L 59.652344 20.238281 L 59.226562 20.777344 L 58.945312 21.09375 L 58.566406 21.558594 L 58.328125 21.828125 L 57.570312 22.753906 L 57 23.4375 L 56.671875 23.828125 L 55.816406 24.902344 L 55.535156 25.21875 L 55.296875 25.539062 L 55.058594 25.828125 L 54.726562 26.21875 L 54.492188 26.488281 L 54.207031 26.855469 L 53.875 27.148438 L 53.6875 27.296875 L 53.589844 27.296875 L 53.449219 27.539062 L 53.402344 27.585938 L 53.308594 27.585938 L 53.164062 27.832031 L 52.691406 28.320312 L 52.359375 28.613281 L 52.265625 28.6875 L 52.3125 28.492188 L 52.785156 27.953125 L 53.210938 27.441406 L 54.113281 26.34375 L 55.058594 25.171875 L 55.863281 24.171875 L 56.386719 23.535156 L 58.234375 21.3125 L 59.179688 20.164062 L 59.84375 19.3125 L 60.601562 18.261719 L 61.121094 17.503906 L 61.738281 16.601562 L 61.976562 16.210938 L 62.117188 16.0625 Z M 62.164062 16.039062 "/>
<path style=" stroke:none;fill-rule:nonzero;fill:rgb(96.078431%,84.313725%,64.313725%);fill-opacity:1;" d="M 71.96875 15.941406 L 72.441406 15.96875 L 72.488281 16.0625 L 72.300781 16.210938 L 72.015625 16.308594 L 71.398438 16.359375 L 69.222656 16.480469 L 68.558594 16.554688 L 68.085938 16.648438 L 67.421875 16.871094 L 67.089844 17.039062 L 66.757812 17.335938 L 66.523438 17.75 L 66.425781 18.238281 L 66.378906 18.285156 L 66.285156 18.578125 L 66.238281 18.578125 L 66.191406 18.457031 L 66.191406 17.921875 L 66.285156 17.625 L 66.523438 17.261719 L 66.710938 17.113281 L 66.996094 16.917969 L 67.089844 16.917969 L 67.183594 16.820312 L 67.28125 16.675781 L 67.230469 16.503906 L 67.042969 16.382812 L 66.902344 16.332031 L 66.570312 16.285156 L 65.148438 16.210938 L 65.148438 16.1875 L 68.039062 16.164062 L 68.132812 16.136719 L 69.789062 16.0625 L 71.589844 15.96875 Z M 71.96875 15.941406 "/>
<path style=" stroke:none;fill-rule:nonzero;fill:rgb(0%,0%,0%);fill-opacity:1;" d="M 48.570312 7.398438 L 48.761719 7.445312 L 48.902344 7.519531 L 49.042969 7.8125 L 49.140625 8.03125 L 49.613281 8.25 L 49.660156 8.324219 L 49.660156 8.691406 L 49.519531 8.863281 L 49.328125 9.007812 L 49.09375 9.421875 L 48.949219 9.839844 L 48.902344 9.886719 L 48.714844 9.863281 L 48.382812 9.59375 L 48.191406 9.203125 L 47.859375 8.835938 L 47.765625 8.667969 L 47.765625 8.375 L 47.90625 8.203125 L 48.382812 8.03125 L 48.335938 7.835938 L 48.335938 7.542969 L 48.476562 7.421875 Z M 48.570312 7.398438 "/>
<path style=" stroke:none;fill-rule:nonzero;fill:rgb(95.686275%,83.921569%,63.921569%);fill-opacity:1;" d="M 60.695312 20.265625 L 60.742188 20.265625 L 60.695312 20.433594 L 59.796875 21.53125 L 59.085938 22.386719 L 58.234375 23.4375 L 57.191406 24.683594 L 55.484375 26.734375 L 54.917969 27.441406 L 54.726562 27.5625 L 54.632812 27.660156 L 54.585938 27.660156 L 54.632812 27.492188 L 54.824219 27.246094 L 55.296875 26.539062 L 55.863281 25.878906 L 56.242188 25.390625 L 56.292969 25.195312 L 56.527344 24.953125 L 56.71875 24.804688 L 56.953125 24.511719 L 57.144531 24.339844 L 57.664062 23.78125 L 57.996094 23.339844 L 58.042969 23.242188 L 57.996094 23.167969 L 58.136719 23 L 58.234375 22.949219 L 58.375 22.703125 L 58.613281 22.414062 L 58.800781 22.363281 L 58.945312 21.972656 L 59.179688 21.679688 L 59.324219 21.582031 L 59.273438 21.753906 L 59.511719 21.484375 L 59.558594 21.386719 L 59.464844 21.363281 L 59.652344 21.167969 L 59.75 21.214844 L 60.082031 20.824219 L 60.554688 20.359375 Z M 60.695312 20.265625 "/>
<path style=" stroke:none;fill-rule:nonzero;fill:rgb(96.078431%,84.313725%,63.921569%);fill-opacity:1;" d="M 56.339844 13.0625 L 56.527344 13.085938 L 56.671875 13.207031 L 56.621094 13.328125 L 56.242188 13.402344 L 53.402344 13.648438 L 52.785156 13.769531 L 52.265625 13.964844 L 51.933594 14.109375 L 51.648438 14.304688 L 51.367188 14.601562 L 51.128906 15.0625 L 51.035156 15.429688 L 50.988281 15.453125 L 50.890625 16.234375 L 50.796875 16.285156 L 50.75 16.257812 L 50.75 15.28125 L 50.796875 14.941406 L 50.988281 14.671875 L 51.507812 14.234375 L 51.648438 14.210938 L 51.746094 14.109375 L 52.027344 13.964844 L 52.3125 13.695312 L 52.359375 13.648438 L 52.453125 13.648438 L 52.503906 13.523438 L 52.597656 13.453125 L 52.691406 13.453125 L 52.738281 13.378906 L 53.210938 13.28125 L 55.011719 13.183594 L 55.484375 13.160156 L 55.535156 13.132812 Z M 56.339844 13.0625 "/>
<path style=" stroke:none;fill-rule:nonzero;fill:rgb(88.627451%,74.901961%,53.72549%);fill-opacity:1;" d="M 49.753906 37.207031 L 49.800781 37.207031 L 49.753906 37.453125 L 49.328125 38.0625 L 48.570312 38.867188 L 48.003906 39.40625 L 47.8125 39.527344 L 47.71875 39.476562 L 47.527344 39.601562 L 47.292969 39.695312 L 47.246094 39.769531 L 47.054688 39.867188 L 46.628906 40.160156 L 46.203125 40.40625 L 45.871094 40.601562 L 45.492188 40.820312 L 45.207031 40.917969 L 45.207031 40.96875 L 44.734375 41.136719 L 44.496094 41.210938 L 44.355469 41.332031 L 43.976562 41.429688 L 43.789062 41.503906 L 43.691406 41.503906 L 43.691406 41.554688 L 43.21875 41.699219 L 42.933594 41.796875 L 42.699219 41.84375 L 41.988281 42.015625 L 41.230469 42.234375 L 40.660156 42.308594 L 40.140625 42.457031 L 39.949219 42.429688 L 40.328125 42.335938 L 40.804688 42.164062 L 40.945312 42.164062 L 40.945312 42.113281 L 41.417969 41.96875 L 41.5625 41.992188 L 42.222656 41.820312 L 43.078125 41.554688 L 43.3125 41.480469 L 43.410156 41.480469 L 43.410156 41.429688 L 43.738281 41.332031 L 44.355469 41.089844 L 45.539062 40.476562 L 45.632812 40.476562 L 45.683594 40.40625 L 45.777344 40.40625 L 45.777344 40.355469 L 45.917969 40.28125 L 46.011719 40.28125 L 46.0625 40.210938 L 46.296875 40.085938 L 46.628906 39.890625 L 46.867188 39.796875 L 47.148438 39.574219 L 47.527344 39.40625 L 47.957031 39.109375 L 48.429688 38.695312 L 48.617188 38.574219 L 48.902344 38.304688 L 49.28125 37.890625 L 49.566406 37.5 Z M 49.753906 37.207031 "/>
<path style=" stroke:none;fill-rule:nonzero;fill:rgb(96.078431%,84.313725%,64.313725%);fill-opacity:1;" d="M 29.011719 34.789062 L 29.910156 34.886719 L 30.003906 34.9375 L 30.429688 34.960938 L 30.667969 34.984375 L 31.378906 35.007812 L 31.757812 35.058594 L 31.710938 35.109375 L 30.050781 35.179688 L 28.300781 35.203125 L 26.738281 35.328125 L 26.5 35.328125 L 26.5 35.375 L 26.214844 35.398438 L 25.789062 35.398438 L 25.695312 35.328125 L 25.695312 35.15625 L 25.835938 35.035156 L 25.929688 35.007812 L 26.832031 34.984375 L 28.15625 34.886719 Z M 29.011719 34.789062 "/>
<path style=" stroke:none;fill-rule:nonzero;fill:rgb(97.254902%,85.490196%,65.490196%);fill-opacity:1;" d="M 69.175781 34.863281 L 70.640625 34.960938 L 71.496094 34.984375 L 71.683594 35.035156 L 71.96875 35.007812 L 72.773438 35.007812 L 72.867188 35.058594 L 72.914062 35.15625 L 72.914062 35.398438 L 72.820312 35.425781 L 72.394531 35.425781 L 72.15625 35.398438 L 72.15625 35.351562 L 71.496094 35.328125 L 71.070312 35.304688 L 70.359375 35.253906 L 69.078125 35.203125 L 67.375 35.179688 L 66.996094 35.15625 L 67.089844 35.109375 L 68.417969 34.9375 L 69.078125 34.886719 Z M 69.175781 34.863281 "/>
<path style=" stroke:none;fill-rule:nonzero;fill:rgb(87.843137%,73.72549%,52.941176%);fill-opacity:1;" d="M 40.660156 13.132812 L 41.515625 13.132812 L 43.550781 13.207031 L 43.691406 13.234375 L 44.59375 13.28125 L 44.6875 13.304688 L 44.59375 13.402344 L 44.546875 13.5 L 44.78125 13.746094 L 45.351562 14.039062 L 45.351562 14.085938 L 45.445312 14.085938 L 45.730469 14.332031 L 45.917969 14.550781 L 45.917969 14.601562 L 45.824219 14.601562 L 45.632812 14.355469 L 45.304688 14.109375 L 45.066406 13.964844 L 44.402344 13.746094 L 43.738281 13.648438 L 42.035156 13.523438 L 40.945312 13.429688 L 40.613281 13.355469 L 40.566406 13.183594 Z M 40.660156 13.132812 "/>
<path style=" stroke:none;fill-rule:nonzero;fill:rgb(96.078431%,83.921569%,63.921569%);fill-opacity:1;" d="M 25.222656 15.992188 L 26.027344 15.992188 L 28.394531 16.089844 L 28.582031 16.113281 L 29.578125 16.164062 L 29.578125 16.1875 L 28.679688 16.257812 L 28.441406 16.285156 L 28.488281 16.453125 L 28.726562 16.578125 L 29.105469 16.722656 L 29.71875 16.96875 L 29.578125 16.992188 L 28.867188 16.773438 L 28.203125 16.625 L 27.257812 16.480469 L 26.074219 16.359375 L 25.457031 16.308594 L 25.078125 16.1875 L 25.078125 16.0625 Z M 25.222656 15.992188 "/>
<path style=" stroke:none;fill-rule:nonzero;fill:rgb(89.411765%,75.294118%,54.117647%);fill-opacity:1;" d="M 61.21875 19.53125 L 61.3125 19.53125 L 61.265625 19.703125 L 60.789062 20.3125 L 60.648438 20.3125 L 60.222656 20.726562 L 59.9375 21.046875 L 59.75 21.242188 L 59.652344 21.191406 L 59.511719 21.363281 L 59.558594 21.484375 L 59.226562 21.851562 L 59.179688 21.800781 L 59.226562 21.679688 L 58.992188 21.972656 L 58.847656 22.3125 L 58.613281 22.460938 L 58.28125 22.898438 L 58.234375 23 L 58.136719 23 L 58.042969 23.21875 L 58.089844 23.316406 L 57.902344 23.511719 L 57.523438 24 L 56.621094 24.925781 L 56.480469 25.023438 L 56.292969 25.269531 L 56.195312 25.269531 L 56.242188 25.171875 L 56.90625 24.367188 L 57.191406 24 L 58.136719 22.898438 L 58.421875 22.507812 L 58.566406 22.265625 L 58.894531 21.898438 L 59.132812 21.605469 L 59.605469 21.09375 L 59.890625 20.777344 L 60.128906 20.460938 L 60.363281 20.214844 L 60.601562 19.945312 L 60.839844 19.824219 L 61.167969 19.554688 Z M 61.21875 19.53125 "/>
<path style=" stroke:none;fill-rule:nonzero;fill:rgb(0%,0%,0%);fill-opacity:1;" d="M 41.230469 8.128906 L 41.609375 8.128906 L 41.941406 8.277344 L 42.460938 8.617188 L 42.839844 8.789062 L 43.078125 8.984375 L 43.125 9.058594 L 43.125 9.496094 L 42.886719 9.863281 L 42.601562 9.984375 L 42.507812 9.914062 L 42.320312 9.351562 L 42.082031 8.960938 L 41.5625 8.398438 Z M 41.230469 8.128906 "/>
<path style=" stroke:none;fill-rule:nonzero;fill:rgb(87.843137%,73.72549%,52.54902%);fill-opacity:1;" d="M 66.238281 21.214844 L 66.285156 21.214844 L 66.285156 21.65625 L 66.378906 21.65625 L 66.425781 22.582031 L 66.472656 25.632812 L 66.472656 27.441406 L 66.425781 28.027344 L 66.378906 28.027344 L 66.332031 27.808594 L 66.238281 26.878906 L 66.238281 25.316406 L 66.191406 24.339844 L 66.191406 21.679688 Z M 66.238281 21.214844 "/>
<path style=" stroke:none;fill-rule:nonzero;fill:rgb(0%,0%,0%);fill-opacity:1;" d="M 55.769531 8.082031 L 55.816406 8.15625 L 55.390625 8.617188 L 55.105469 8.960938 L 54.726562 9.742188 L 54.539062 9.9375 L 54.398438 9.886719 L 54.160156 9.59375 L 54.066406 9.375 L 54.066406 9.179688 L 54.207031 8.9375 L 54.492188 8.691406 L 55.25 8.300781 L 55.675781 8.105469 Z M 55.769531 8.082031 "/>
<path style=" stroke:none;fill-rule:nonzero;fill:rgb(97.647059%,85.490196%,65.490196%);fill-opacity:1;" d="M 60.082031 34.914062 L 60.410156 34.9375 L 60.648438 34.984375 L 60.980469 35.007812 L 61.074219 35.082031 L 61.21875 35.109375 L 61.21875 35.15625 L 60.886719 35.203125 L 59.605469 35.230469 L 57.570312 35.398438 L 57.523438 35.425781 L 57.097656 35.425781 L 57 35.375 L 57 35.277344 L 57.332031 35.132812 L 57.617188 35.058594 L 58.515625 35.007812 L 59.417969 34.9375 Z M 60.082031 34.914062 "/>
<path style=" stroke:none;fill-rule:nonzero;fill:rgb(89.411765%,75.294118%,54.117647%);fill-opacity:1;" d="M 35.832031 34.914062 L 36.160156 34.914062 L 36.96875 34.984375 L 37.441406 35.007812 L 37.535156 35.082031 L 38.292969 35.082031 L 38.433594 35.058594 L 38.765625 35.058594 L 38.765625 35.375 L 38.625 35.449219 L 38.339844 35.425781 L 38.007812 35.351562 L 37.347656 35.277344 L 35.355469 35.179688 L 34.265625 35.15625 L 33.746094 35.132812 L 33.792969 35.082031 L 34.21875 35.058594 L 34.835938 34.984375 Z M 35.832031 34.914062 "/>
<path style=" stroke:none;fill-rule:nonzero;fill:rgb(85.098039%,71.372549%,50.588235%);fill-opacity:1;" d="M 34.695312 20.898438 L 34.789062 20.972656 L 35.167969 21.335938 L 35.546875 21.777344 L 36.539062 22.804688 L 36.96875 23.289062 L 37.25 23.679688 L 37.628906 24.046875 L 37.867188 24.316406 L 38.386719 24.902344 L 38.71875 25.242188 L 38.910156 25.488281 L 39.714844 26.320312 L 39.902344 26.539062 L 40.378906 27.125 L 40.566406 27.367188 L 40.566406 27.441406 L 40.472656 27.441406 L 39.144531 25.976562 L 38.292969 25.023438 L 37.773438 24.4375 L 36.871094 23.4375 L 36.160156 22.632812 L 35.5 21.921875 L 35.121094 21.484375 L 34.695312 21.019531 Z M 34.695312 20.898438 "/>
<path style=" stroke:none;fill-rule:nonzero;fill:rgb(89.019608%,75.294118%,54.117647%);fill-opacity:1;" d="M 65.148438 16.1875 L 67.660156 16.1875 L 67.660156 16.234375 L 67.941406 16.257812 L 68.132812 16.332031 L 68.085938 16.453125 L 68.039062 16.503906 L 67.941406 16.503906 L 67.847656 16.625 L 67.660156 16.722656 L 67.707031 16.773438 L 67.328125 16.917969 L 66.996094 17.113281 L 66.710938 17.40625 L 66.523438 17.75 L 66.425781 18.238281 L 66.378906 18.285156 L 66.285156 18.578125 L 66.238281 18.578125 L 66.191406 18.457031 L 66.191406 17.921875 L 66.285156 17.625 L 66.523438 17.261719 L 66.710938 17.113281 L 66.996094 16.917969 L 67.089844 16.917969 L 67.183594 16.820312 L 67.28125 16.675781 L 67.230469 16.503906 L 67.042969 16.382812 L 66.902344 16.332031 L 66.570312 16.285156 L 65.148438 16.210938 Z M 65.148438 16.1875 "/>
<path style=" stroke:none;fill-rule:nonzero;fill:rgb(88.235294%,74.117647%,52.941176%);fill-opacity:1;" d="M 27.921875 16.089844 L 28.394531 16.089844 L 28.582031 16.113281 L 29.578125 16.164062 L 29.578125 16.1875 L 28.679688 16.257812 L 28.441406 16.285156 L 28.488281 16.453125 L 28.726562 16.578125 L 29.105469 16.722656 L 29.71875 16.96875 L 29.578125 16.992188 L 28.867188 16.773438 L 28.203125 16.625 L 27.445312 16.503906 L 27.496094 16.453125 L 27.257812 16.40625 L 27.257812 16.359375 L 27.117188 16.359375 L 27.019531 16.234375 L 27.210938 16.1875 L 27.730469 16.164062 Z M 27.921875 16.089844 "/>
<path style=" stroke:none;fill-rule:nonzero;fill:rgb(88.627451%,74.901961%,53.72549%);fill-opacity:1;" d="M 39.855469 7.03125 L 40.328125 7.03125 L 40.660156 7.078125 L 40.757812 7.519531 L 40.707031 7.617188 L 40.851562 7.789062 L 41.183594 8.03125 L 41.277344 8.054688 L 41.277344 8.105469 L 41.136719 8.105469 L 41.136719 8.15625 L 41.324219 8.179688 L 41.703125 8.496094 L 42.175781 9.007812 L 42.273438 9.15625 L 42.273438 9.375 L 42.222656 9.375 L 42.035156 9.058594 L 41.703125 8.714844 L 41.609375 8.640625 L 41.417969 8.617188 L 41.039062 8.128906 L 40.378906 7.617188 L 40 7.347656 L 39.855469 7.152344 Z M 39.855469 7.03125 "/>
<path style=" stroke:none;fill-rule:nonzero;fill:rgb(88.235294%,74.117647%,53.333333%);fill-opacity:1;" d="M 48.664062 5.8125 L 48.855469 5.835938 L 49.28125 6.371094 L 49.613281 6.640625 L 49.566406 6.714844 L 49.328125 6.542969 L 48.949219 6.46875 L 48.714844 6.421875 L 48.523438 6.492188 L 48.191406 6.59375 L 47.90625 6.714844 L 47.527344 7.03125 L 47.246094 7.25 L 46.914062 7.617188 L 46.867188 7.617188 L 46.914062 7.445312 L 47.339844 7.03125 L 47.957031 6.519531 L 48.335938 6.175781 Z M 48.664062 5.8125 "/>
<path style=" stroke:none;fill-rule:nonzero;fill:rgb(86.27451%,72.941176%,51.764706%);fill-opacity:1;" d="M 52.976562 29.589844 L 53.070312 29.589844 L 53.023438 29.710938 L 52.40625 30.445312 L 51.746094 31.25 L 51.175781 31.957031 L 51.082031 32.105469 L 50.988281 32.105469 L 50.9375 32.324219 L 50.890625 32.46875 L 50.796875 32.398438 L 50.796875 32.128906 L 51.128906 31.640625 L 51.460938 31.175781 L 51.839844 30.785156 L 52.171875 30.394531 L 52.503906 30.03125 L 52.738281 29.734375 L 52.832031 29.664062 L 52.929688 29.664062 Z M 52.976562 29.589844 "/>
<path style=" stroke:none;fill-rule:nonzero;fill:rgb(94.117647%,82.352941%,62.352941%);fill-opacity:1;" d="M 59.9375 19.261719 L 59.984375 19.359375 L 59.703125 19.773438 L 59.464844 20.042969 L 59.371094 20.164062 L 59.179688 20.386719 L 58.992188 20.65625 L 58.753906 20.898438 L 58.566406 21.140625 L 58.28125 21.53125 L 57.949219 21.898438 L 57.808594 22.117188 L 57.664062 22.265625 L 57.570312 22.339844 L 57.570312 22.4375 L 57.476562 22.484375 L 57.429688 22.582031 L 57.285156 22.632812 L 57.191406 22.804688 L 57.050781 22.804688 L 57.097656 22.679688 L 58.1875 21.363281 L 58.800781 20.628906 L 59.558594 19.679688 L 59.84375 19.3125 Z M 59.9375 19.261719 "/>
<path style=" stroke:none;fill-rule:nonzero;fill:rgb(89.019608%,74.901961%,53.72549%);fill-opacity:1;" d="M 29.011719 34.789062 L 29.910156 34.886719 L 30.003906 34.9375 L 30.429688 34.960938 L 30.667969 34.984375 L 31.378906 35.007812 L 31.757812 35.058594 L 31.710938 35.109375 L 30.050781 35.179688 L 28.300781 35.203125 L 28.0625 35.230469 L 27.589844 35.230469 L 27.445312 35.15625 L 28.015625 35.132812 L 29.484375 35.132812 L 29.910156 35.082031 L 29.246094 35.058594 L 29.246094 35.007812 L 29.152344 35.007812 L 29.105469 34.886719 L 28.726562 34.839844 L 28.726562 34.8125 Z M 29.011719 34.789062 "/>
<path style=" stroke:none;fill-rule:nonzero;fill:rgb(88.627451%,74.509804%,53.333333%);fill-opacity:1;" d="M 61.21875 19.53125 L 61.3125 19.53125 L 61.265625 19.703125 L 60.789062 20.3125 L 60.648438 20.3125 L 60.222656 20.726562 L 59.9375 21.046875 L 59.75 21.242188 L 59.558594 21.191406 L 59.703125 20.972656 L 59.9375 20.726562 L 60.128906 20.460938 L 60.363281 20.214844 L 60.601562 19.945312 L 60.839844 19.824219 L 61.167969 19.554688 Z M 61.21875 19.53125 "/>
<path style=" stroke:none;fill-rule:nonzero;fill:rgb(89.411765%,75.294118%,54.117647%);fill-opacity:1;" d="M 69.175781 34.863281 L 69.789062 34.914062 L 69.789062 34.9375 L 69.078125 34.960938 L 68.746094 35.007812 L 68.652344 35.058594 L 68.699219 35.109375 L 70.5 35.15625 L 70.925781 35.230469 L 71.257812 35.277344 L 71.636719 35.277344 L 71.496094 35.328125 L 71.070312 35.304688 L 70.359375 35.253906 L 69.078125 35.203125 L 67.375 35.179688 L 66.996094 35.15625 L 67.089844 35.109375 L 68.417969 34.9375 L 69.078125 34.886719 Z M 69.175781 34.863281 "/>
<path style=" stroke:none;fill-rule:nonzero;fill:rgb(88.235294%,74.509804%,53.333333%);fill-opacity:1;" d="M 51.648438 14.160156 L 51.746094 14.234375 L 51.460938 14.476562 L 51.222656 14.867188 L 51.082031 15.234375 L 51.035156 15.429688 L 50.988281 15.453125 L 50.890625 16.234375 L 50.796875 16.285156 L 50.75 16.257812 L 50.75 15.28125 L 50.796875 14.941406 L 50.988281 14.671875 L 51.507812 14.234375 L 51.648438 14.210938 Z M 51.648438 14.160156 "/>
<path style=" stroke:none;fill-rule:nonzero;fill:rgb(88.627451%,74.509804%,53.333333%);fill-opacity:1;" d="M 60.316406 34.8125 L 60.460938 34.8125 L 60.507812 34.914062 L 60.789062 34.9375 L 61.167969 34.960938 L 62.070312 34.984375 L 62.449219 35.035156 L 62.683594 35.109375 L 62.683594 35.15625 L 62.210938 35.179688 L 60.933594 35.179688 L 60.933594 35.15625 L 61.21875 35.15625 L 61.21875 35.109375 L 61.027344 35.082031 L 60.980469 35.035156 L 60.507812 34.984375 L 60.316406 34.9375 L 59.417969 34.960938 L 58.515625 35.035156 L 57.617188 35.082031 L 57.238281 35.179688 L 57.050781 35.277344 L 57.144531 35.15625 L 57.378906 35.058594 L 57.902344 35.007812 L 59.984375 34.863281 Z M 60.316406 34.8125 "/>
<path style=" stroke:none;fill-rule:nonzero;fill:rgb(95.686275%,83.921569%,63.921569%);fill-opacity:1;" d="M 40.660156 13.132812 L 41.515625 13.132812 L 42.507812 13.183594 L 43.03125 13.234375 L 42.933594 13.257812 L 42.933594 13.304688 L 41.703125 13.355469 L 41.230469 13.355469 L 41.183594 13.402344 L 40.757812 13.402344 L 40.566406 13.304688 L 40.566406 13.183594 Z M 40.660156 13.132812 "/>
<path style=" stroke:none;fill-rule:nonzero;fill:rgb(86.27451%,72.941176%,51.764706%);fill-opacity:1;" d="M 34.695312 20.898438 L 34.789062 20.972656 L 35.167969 21.335938 L 35.546875 21.777344 L 36.539062 22.804688 L 36.96875 23.289062 L 37.203125 23.609375 L 37.15625 23.679688 L 37.15625 23.632812 L 37.0625 23.632812 L 36.304688 22.804688 L 35.074219 21.4375 L 34.695312 21.019531 Z M 34.695312 20.898438 "/>
<path style=" stroke:none;fill-rule:nonzero;fill:rgb(88.627451%,74.901961%,53.72549%);fill-opacity:1;" d="M 62.164062 16.039062 L 62.683594 16.089844 L 62.828125 16.113281 L 63.394531 16.136719 L 63.394531 16.164062 L 62.734375 16.1875 L 62.304688 16.257812 L 62.070312 16.527344 L 61.597656 17.164062 L 61.40625 17.210938 L 61.453125 17.039062 L 61.832031 16.429688 L 62.070312 16.089844 Z M 62.164062 16.039062 "/>
<path style=" stroke:none;fill-rule:nonzero;fill:rgb(89.411765%,75.294118%,54.117647%);fill-opacity:1;" d="M 54.160156 13.234375 L 54.445312 13.234375 L 54.445312 13.257812 L 53.828125 13.304688 L 53.734375 13.328125 L 53.6875 13.429688 L 53.308594 13.5 L 52.832031 13.625 L 52.597656 13.71875 L 52.359375 13.84375 L 52.074219 13.964844 L 52.125 13.867188 L 52.359375 13.648438 L 52.453125 13.648438 L 52.503906 13.523438 L 52.597656 13.453125 L 52.691406 13.453125 L 52.738281 13.378906 L 53.210938 13.28125 Z M 54.160156 13.234375 "/>
<path style=" stroke:none;fill-rule:nonzero;fill:rgb(97.254902%,85.098039%,65.098039%);fill-opacity:1;" d="M 38.625 35.058594 L 38.765625 35.058594 L 38.765625 35.375 L 38.625 35.449219 L 38.339844 35.425781 L 38.007812 35.351562 L 37.394531 35.277344 L 37.296875 35.179688 L 38.199219 35.15625 Z M 38.625 35.058594 "/>
<path style=" stroke:none;fill-rule:nonzero;fill:rgb(87.843137%,74.117647%,52.941176%);fill-opacity:1;" d="M 55.484375 7.03125 L 56.101562 7.03125 L 56.195312 7.078125 L 55.4375 7.179688 L 54.632812 7.398438 L 54.347656 7.519531 L 54.207031 7.617188 L 54.113281 7.617188 L 54.066406 7.789062 L 53.921875 7.960938 L 53.875 7.960938 L 53.921875 7.738281 L 54.113281 7.496094 L 54.445312 7.300781 L 55.34375 7.054688 Z M 55.484375 7.03125 "/>
<path style=" stroke:none;fill-rule:nonzero;fill:rgb(93.333333%,81.568627%,61.176471%);fill-opacity:1;" d="M 59.9375 19.261719 L 59.984375 19.359375 L 59.703125 19.773438 L 59.464844 20.042969 L 59.371094 20.164062 L 59.179688 20.386719 L 58.992188 20.65625 L 58.753906 20.898438 L 58.660156 21.019531 L 58.46875 21.070312 L 58.613281 20.851562 L 59.273438 20.042969 L 59.84375 19.3125 Z M 59.9375 19.261719 "/>
<path style=" stroke:none;fill-rule:nonzero;fill:rgb(91.372549%,79.215686%,58.823529%);fill-opacity:1;" d="M 40.898438 7.960938 L 41.183594 8.082031 L 41.136719 8.15625 L 41.324219 8.179688 L 41.703125 8.496094 L 42.175781 9.007812 L 42.273438 9.15625 L 42.273438 9.375 L 42.222656 9.375 L 42.035156 9.058594 L 41.703125 8.714844 L 41.609375 8.640625 L 41.417969 8.617188 L 41.039062 8.128906 L 40.898438 8.03125 Z M 40.898438 7.960938 "/>
<path style=" stroke:none;fill-rule:nonzero;fill:rgb(87.843137%,74.117647%,53.333333%);fill-opacity:1;" d="M 57.476562 7.03125 L 57.757812 7.054688 L 57.710938 7.179688 L 57.332031 7.445312 L 56.859375 7.765625 L 56.574219 8.007812 L 56.480469 8.007812 L 56.574219 7.859375 L 56.71875 7.691406 L 57 7.421875 L 57.191406 7.25 L 57.285156 7.128906 L 57.378906 7.128906 L 57.378906 7.054688 Z M 57.476562 7.03125 "/>
<path style=" stroke:none;fill-rule:nonzero;fill:rgb(88.627451%,74.901961%,53.72549%);fill-opacity:1;" d="M 42.601562 11.328125 L 42.699219 11.402344 L 42.839844 11.644531 L 43.265625 11.71875 L 44.167969 11.765625 L 44.167969 11.792969 L 43.3125 11.839844 L 42.414062 11.839844 L 42.460938 11.621094 L 42.554688 11.351562 Z M 42.601562 11.328125 "/>
<path style=" stroke:none;fill-rule:nonzero;fill:rgb(87.843137%,74.509804%,53.72549%);fill-opacity:1;" d="M 43.882812 40.308594 L 43.976562 40.308594 L 43.882812 40.429688 L 43.597656 40.773438 L 43.3125 41.015625 L 43.21875 41.015625 L 43.125 41.136719 L 43.03125 41.136719 L 42.933594 41.234375 L 42.699219 41.359375 L 42.367188 41.453125 L 42.273438 41.480469 L 42.320312 41.382812 L 43.03125 40.992188 L 43.597656 40.578125 Z M 43.882812 40.308594 "/>
<path style=" stroke:none;fill-rule:nonzero;fill:rgb(94.509804%,82.745098%,62.352941%);fill-opacity:1;" d="M 48.664062 5.8125 L 48.855469 5.835938 L 49.140625 6.203125 L 49.140625 6.324219 L 49.09375 6.273438 L 48.855469 6.226562 L 48.617188 6.203125 L 48.429688 6.226562 L 48.335938 6.324219 L 48.285156 6.226562 Z M 48.664062 5.8125 "/>
<path style=" stroke:none;fill-rule:nonzero;fill:rgb(85.882353%,72.54902%,51.764706%);fill-opacity:1;" d="M 61.359375 17.164062 L 61.5 17.164062 L 61.546875 17.210938 L 61.265625 17.601562 L 61.074219 17.820312 L 60.839844 18.238281 L 60.742188 18.359375 L 60.601562 18.433594 L 60.507812 18.433594 L 60.648438 18.210938 L 61.121094 17.503906 Z M 61.359375 17.164062 "/>
<path style=" stroke:none;fill-rule:nonzero;fill:rgb(83.137255%,69.803922%,49.019608%);fill-opacity:1;" d="M 43.882812 31.175781 L 44.070312 31.296875 L 44.59375 31.859375 L 45.019531 32.324219 L 45.253906 32.617188 L 45.585938 32.960938 L 45.585938 33.03125 L 45.492188 33.03125 L 44.972656 32.46875 L 44.261719 31.664062 L 43.882812 31.25 Z M 43.882812 31.175781 "/>
<path style=" stroke:none;fill-rule:nonzero;fill:rgb(86.27451%,72.941176%,51.764706%);fill-opacity:1;" d="M 35.261719 16.136719 L 35.453125 16.164062 L 35.832031 16.527344 L 36.210938 16.96875 L 36.160156 17.066406 L 35.78125 16.675781 L 35.402344 16.40625 L 35.121094 16.234375 L 35.167969 16.164062 Z M 35.261719 16.136719 "/>
<path style=" stroke:none;fill-rule:nonzero;fill:rgb(98.823529%,87.058824%,67.058824%);fill-opacity:1;" d="M 35.972656 34.984375 L 36.445312 34.984375 L 36.96875 35.007812 L 36.96875 35.082031 L 36.777344 35.132812 L 35.972656 35.132812 L 35.5 35.082031 L 35.59375 35.035156 Z M 35.972656 34.984375 "/>
<path style=" stroke:none;fill-rule:nonzero;fill:rgb(89.411765%,75.294118%,54.117647%);fill-opacity:1;" d="M 59.324219 35.132812 L 60.839844 35.15625 L 60.886719 35.203125 L 59.605469 35.230469 L 58.660156 35.304688 L 58.375 35.304688 L 58.566406 35.253906 L 59.085938 35.179688 Z M 59.324219 35.132812 "/>
<path style=" stroke:none;fill-rule:nonzero;fill:rgb(94.509804%,82.745098%,62.352941%);fill-opacity:1;" d="M 51.414062 14.40625 L 51.460938 14.476562 L 51.222656 14.867188 L 51.082031 15.113281 L 50.9375 15.1875 L 50.9375 14.890625 L 51.128906 14.625 Z M 51.414062 14.40625 "/>
<path style=" stroke:none;fill-rule:nonzero;fill:rgb(87.843137%,74.509804%,53.333333%);fill-opacity:1;" d="M 41.988281 7.105469 L 42.320312 7.105469 L 42.792969 7.25 L 43.265625 7.46875 L 43.410156 7.570312 L 43.359375 7.640625 L 43.359375 7.59375 L 43.21875 7.570312 L 43.21875 7.519531 L 43.03125 7.46875 L 42.699219 7.324219 L 41.988281 7.128906 Z M 41.988281 7.105469 "/>
<path style=" stroke:none;fill-rule:nonzero;fill:rgb(86.27451%,72.54902%,51.764706%);fill-opacity:1;" d="M 33.605469 33.691406 L 33.699219 33.742188 L 33.792969 33.9375 L 33.886719 33.9375 L 34.171875 34.203125 L 34.265625 34.253906 L 34.21875 34.351562 L 33.984375 34.203125 L 33.839844 34.132812 L 33.605469 33.960938 L 33.507812 33.742188 Z M 33.605469 33.691406 "/>
<path style=" stroke:none;fill-rule:nonzero;fill:rgb(92.54902%,80.784314%,60.784314%);fill-opacity:1;" d="M 59.179688 20.265625 L 59.226562 20.335938 L 59.039062 20.582031 L 58.800781 20.851562 L 58.660156 21.019531 L 58.46875 21.070312 L 58.613281 20.851562 L 59.085938 20.289062 Z M 59.179688 20.265625 "/>
<path style=" stroke:none;fill-rule:nonzero;fill:rgb(94.901961%,83.137255%,63.137255%);fill-opacity:1;" d="M 39.902344 7.054688 L 40.1875 7.054688 L 40.234375 7.128906 L 40.140625 7.128906 L 40.140625 7.273438 L 40.566406 7.664062 L 40.472656 7.691406 L 40 7.347656 L 39.902344 7.25 Z M 39.902344 7.054688 "/>
<path style=" stroke:none;fill-rule:nonzero;fill:rgb(73.333333%,61.568627%,40.784314%);fill-opacity:1;" d="M 59.652344 34.886719 L 59.984375 34.886719 L 59.984375 34.914062 L 58.515625 35.035156 L 57.617188 35.082031 L 57.238281 35.179688 L 57.050781 35.277344 L 57.144531 35.15625 L 57.378906 35.058594 L 57.902344 35.007812 Z M 59.652344 34.886719 "/>
<path style=" stroke:none;fill-rule:nonzero;fill:rgb(82.745098%,69.803922%,48.627451%);fill-opacity:1;" d="M 34.695312 20.898438 L 34.789062 20.972656 L 35.167969 21.335938 L 35.546875 21.777344 L 35.453125 21.851562 L 34.695312 21.019531 Z M 34.695312 20.898438 "/>
<path style=" stroke:none;fill-rule:nonzero;fill:rgb(87.843137%,74.509804%,53.72549%);fill-opacity:1;" d="M 61.359375 17.164062 L 61.5 17.164062 L 61.546875 17.210938 L 61.265625 17.601562 L 61.167969 17.726562 L 61.027344 17.75 L 61.074219 17.578125 Z M 61.359375 17.164062 "/>
<path style=" stroke:none;fill-rule:nonzero;fill:rgb(93.72549%,81.960784%,61.568627%);fill-opacity:1;" d="M 62.164062 16.039062 L 62.402344 16.0625 L 62.304688 16.164062 L 62.164062 16.234375 L 61.976562 16.503906 L 61.832031 16.527344 L 61.878906 16.332031 L 62.117188 16.0625 Z M 62.164062 16.039062 "/>
<path style=" stroke:none;fill-rule:nonzero;fill:rgb(83.921569%,70.588235%,49.411765%);fill-opacity:1;" d="M 44.875 32.273438 L 44.972656 32.273438 L 45.160156 32.46875 L 45.351562 32.714844 L 45.585938 32.960938 L 45.585938 33.03125 L 45.492188 33.03125 L 44.972656 32.46875 L 44.875 32.347656 Z M 44.875 32.273438 "/>
<path style=" stroke:none;fill-rule:nonzero;fill:rgb(83.137255%,70.196078%,49.019608%);fill-opacity:1;" d="M 49.753906 37.207031 L 49.800781 37.207031 L 49.753906 37.453125 L 49.328125 38.0625 L 49.234375 37.964844 L 49.375 37.769531 L 49.707031 37.304688 Z M 49.753906 37.207031 "/>
<path style=" stroke:none;fill-rule:nonzero;fill:rgb(89.411765%,75.294118%,54.117647%);fill-opacity:1;" d="M 27.730469 35.132812 L 29.4375 35.15625 L 29.4375 35.179688 L 28.300781 35.203125 L 28.0625 35.230469 L 27.589844 35.230469 L 27.445312 35.15625 Z M 27.730469 35.132812 "/>
<path style=" stroke:none;fill-rule:nonzero;fill:rgb(85.098039%,71.764706%,50.588235%);fill-opacity:1;" d="M 55.105469 9.839844 L 55.15625 9.839844 L 55.15625 10.035156 L 55.011719 10.375 L 54.917969 10.375 L 54.871094 10.472656 L 54.871094 10.277344 L 55.011719 9.914062 Z M 55.105469 9.839844 "/>
<path style=" stroke:none;fill-rule:nonzero;fill:rgb(83.137255%,69.803922%,49.019608%);fill-opacity:1;" d="M 47.433594 6.957031 L 47.527344 6.984375 L 47.433594 7.128906 L 47.246094 7.25 L 46.914062 7.617188 L 46.867188 7.617188 L 46.914062 7.445312 L 47.339844 7.03125 Z M 47.433594 6.957031 "/>
<path style=" stroke:none;fill-rule:nonzero;fill:rgb(92.54902%,80.784314%,60.392157%);fill-opacity:1;" d="M 42.601562 13.5 L 43.3125 13.5 L 43.738281 13.574219 L 43.738281 13.597656 L 43.171875 13.597656 L 42.792969 13.574219 Z M 42.601562 13.5 "/>
<path style=" stroke:none;fill-rule:nonzero;fill:rgb(89.411765%,75.294118%,54.117647%);fill-opacity:1;" d="M 54.726562 11.621094 L 54.824219 11.621094 L 54.871094 11.839844 L 54.777344 11.867188 L 54.347656 11.792969 L 54.398438 11.742188 L 54.632812 11.695312 Z M 54.726562 11.621094 "/>
<path style=" stroke:none;fill-rule:nonzero;fill:rgb(82.352941%,69.411765%,48.235294%);fill-opacity:1;" d="M 44.972656 13.914062 L 45.160156 13.941406 L 45.351562 14.039062 L 45.351562 14.085938 L 45.445312 14.085938 L 45.730469 14.332031 L 45.917969 14.550781 L 45.917969 14.601562 L 45.824219 14.601562 L 45.632812 14.355469 L 45.304688 14.109375 L 45.066406 13.964844 Z M 44.972656 13.914062 "/>
<path style=" stroke:none;fill-rule:nonzero;fill:rgb(88.235294%,75.294118%,54.509804%);fill-opacity:1;" d="M 35.5 21.800781 L 35.59375 21.800781 L 35.925781 22.167969 L 35.878906 22.242188 L 35.734375 22.167969 L 35.5 21.921875 Z M 35.5 21.800781 "/>
<path style=" stroke:none;fill-rule:nonzero;fill:rgb(82.745098%,69.803922%,48.627451%);fill-opacity:1;" d="M 50.179688 36.375 L 50.230469 36.375 L 50.230469 36.570312 L 49.992188 37.035156 L 49.898438 37.035156 L 49.945312 36.867188 Z M 50.179688 36.375 "/>
<path style=" stroke:none;fill-rule:nonzero;fill:rgb(89.803922%,78.039216%,58.039216%);fill-opacity:1;" d="M 60.363281 18.601562 L 60.460938 18.601562 L 60.316406 18.847656 L 60.082031 19.1875 L 59.984375 19.214844 L 60.03125 19.042969 Z M 60.363281 18.601562 "/>
<path style=" stroke:none;fill-rule:nonzero;fill:rgb(91.372549%,79.607843%,59.215686%);fill-opacity:1;" d="M 61.832031 16.554688 L 61.878906 16.625 L 61.5 17.140625 L 61.453125 17.039062 L 61.738281 16.601562 Z M 61.832031 16.554688 "/>
<path style=" stroke:none;fill-rule:nonzero;fill:rgb(92.156863%,80.392157%,60%);fill-opacity:1;" d="M 57.050781 22.828125 L 57.097656 22.925781 L 57 22.972656 L 56.8125 23.21875 L 56.671875 23.289062 L 56.621094 23.242188 L 56.953125 22.851562 Z M 57.050781 22.828125 "/>
<path style=" stroke:none;fill-rule:nonzero;fill:rgb(92.54902%,80.392157%,60%);fill-opacity:1;" d="M 52.265625 13.867188 L 52.3125 13.941406 L 51.933594 14.109375 L 51.792969 14.210938 L 51.695312 14.210938 L 51.746094 14.109375 Z M 52.265625 13.867188 "/>
<path style=" stroke:none;fill-rule:nonzero;fill:rgb(93.333333%,81.176471%,61.176471%);fill-opacity:1;" d="M 58.847656 20.679688 L 58.894531 20.75 L 58.660156 21.019531 L 58.46875 21.070312 L 58.613281 20.851562 L 58.800781 20.703125 Z M 58.847656 20.679688 "/>
<path style=" stroke:none;fill-rule:nonzero;fill:rgb(85.098039%,71.372549%,50.588235%);fill-opacity:1;" d="M 42.886719 7.300781 L 43.21875 7.445312 L 43.410156 7.570312 L 43.359375 7.640625 L 43.359375 7.59375 L 43.21875 7.570312 L 43.21875 7.519531 L 43.03125 7.46875 L 42.839844 7.375 Z M 42.886719 7.300781 "/>
<path style=" stroke:none;fill-rule:nonzero;fill:rgb(88.235294%,74.509804%,53.333333%);fill-opacity:1;" d="M 71.496094 35.007812 L 71.875 35.035156 L 71.96875 35.007812 L 72.773438 35.007812 L 72.773438 35.035156 L 72.0625 35.082031 L 71.636719 35.082031 Z M 71.496094 35.007812 "/>
<path style=" stroke:none;fill-rule:nonzero;fill:rgb(86.666667%,73.333333%,52.156863%);fill-opacity:1;" d="M 35.878906 22.21875 L 36.019531 22.242188 L 36.160156 22.414062 L 36.113281 22.535156 L 35.972656 22.4375 L 35.832031 22.289062 Z M 35.878906 22.21875 "/>
<path style=" stroke:none;fill-rule:nonzero;fill:rgb(87.843137%,74.117647%,52.941176%);fill-opacity:1;" d="M 50.65625 16.773438 L 50.75 16.796875 L 50.796875 16.820312 L 50.796875 17.039062 L 50.75 17.1875 L 50.65625 17.113281 Z M 50.65625 16.773438 "/>
<path style=" stroke:none;fill-rule:nonzero;fill:rgb(89.411765%,75.294118%,54.117647%);fill-opacity:1;" d="M 54.871094 13.328125 L 55.34375 13.355469 L 55.34375 13.378906 L 54.632812 13.429688 L 54.347656 13.429688 L 54.398438 13.378906 Z M 54.871094 13.328125 "/>
<path style=" stroke:none;fill-rule:nonzero;fill:rgb(82.745098%,69.803922%,48.627451%);fill-opacity:1;" d="M 44.59375 39.550781 L 44.6875 39.550781 L 44.59375 39.695312 L 44.261719 40.039062 L 44.214844 39.964844 Z M 44.59375 39.550781 "/>
<path style=" stroke:none;fill-rule:nonzero;fill:rgb(86.27451%,72.941176%,52.156863%);fill-opacity:1;" d="M 41.988281 8.960938 L 42.128906 8.960938 L 42.273438 9.15625 L 42.273438 9.375 L 42.222656 9.375 L 42.035156 9.058594 Z M 41.988281 8.960938 "/>
<path style=" stroke:none;fill-rule:nonzero;fill:rgb(82.352941%,69.411765%,48.235294%);fill-opacity:1;" d="M 43.882812 40.308594 L 43.976562 40.308594 L 43.882812 40.429688 L 43.691406 40.648438 L 43.503906 40.699219 L 43.597656 40.578125 Z M 43.882812 40.308594 "/>
<path style=" stroke:none;fill-rule:nonzero;fill:rgb(80.784314%,68.235294%,47.058824%);fill-opacity:1;" d="M 43.882812 31.175781 L 44.070312 31.296875 L 44.261719 31.519531 L 44.214844 31.617188 L 43.882812 31.25 Z M 43.882812 31.175781 "/>
<path style=" stroke:none;fill-rule:nonzero;fill:rgb(84.705882%,71.372549%,50.196078%);fill-opacity:1;" d="M 54.019531 7.617188 L 54.113281 7.617188 L 54.066406 7.789062 L 53.921875 7.960938 L 53.875 7.960938 L 53.921875 7.738281 Z M 54.019531 7.617188 "/>
<path style=" stroke:none;fill-rule:nonzero;fill:rgb(83.529412%,70.588235%,49.411765%);fill-opacity:1;" d="M 47.433594 6.957031 L 47.527344 6.984375 L 47.433594 7.128906 L 47.246094 7.25 L 47.148438 7.25 L 47.246094 7.128906 Z M 47.433594 6.957031 "/>
<path style=" stroke:none;fill-rule:nonzero;fill:rgb(85.098039%,72.156863%,50.980392%);fill-opacity:1;" d="M 60.789062 18.164062 L 60.839844 18.238281 L 60.742188 18.359375 L 60.601562 18.433594 L 60.507812 18.433594 L 60.648438 18.210938 Z M 60.789062 18.164062 "/>
<path style=" stroke:none;fill-rule:nonzero;fill:rgb(84.705882%,70.980392%,50.196078%);fill-opacity:1;" d="M 49.421875 37.742188 L 49.472656 37.742188 L 49.421875 37.9375 L 49.328125 38.0625 L 49.234375 37.964844 L 49.375 37.769531 Z M 49.421875 37.742188 "/>
<path style=" stroke:none;fill-rule:nonzero;fill:rgb(82.352941%,69.019608%,48.235294%);fill-opacity:1;" d="M 45.253906 32.714844 L 45.351562 32.714844 L 45.585938 32.960938 L 45.585938 33.03125 L 45.492188 33.03125 L 45.253906 32.789062 Z M 45.253906 32.714844 "/>
<path style=" stroke:none;fill-rule:nonzero;fill:rgb(98.431373%,86.666667%,66.27451%);fill-opacity:1;" d="M 54.824219 27.320312 L 54.871094 27.367188 L 54.824219 27.515625 L 54.726562 27.5625 L 54.632812 27.660156 L 54.585938 27.660156 L 54.632812 27.492188 L 54.777344 27.34375 Z M 54.824219 27.320312 "/>
<path style=" stroke:none;fill-rule:nonzero;fill:rgb(89.411765%,75.686275%,54.901961%);fill-opacity:1;" d="M 42.273438 9.765625 L 42.554688 9.914062 L 42.507812 10.035156 L 42.367188 10.007812 Z M 42.273438 9.765625 "/>
<path style=" stroke:none;fill-rule:nonzero;fill:rgb(89.019608%,76.470588%,56.078431%);fill-opacity:1;" d="M 51.648438 14.160156 L 51.746094 14.234375 L 51.507812 14.429688 L 51.414062 14.378906 L 51.554688 14.210938 L 51.648438 14.210938 Z M 51.648438 14.160156 "/>
<path style=" stroke:none;fill-rule:nonzero;fill:rgb(86.27451%,72.941176%,51.764706%);fill-opacity:1;" d="M 47.8125 6.714844 L 47.8125 6.789062 L 47.578125 6.984375 L 47.480469 6.984375 L 47.527344 6.859375 L 47.765625 6.738281 Z M 47.8125 6.714844 "/>
<path style=" stroke:none;fill-rule:nonzero;fill:rgb(89.411765%,75.294118%,54.117647%);fill-opacity:1;" d="M 51.414062 14.332031 L 51.460938 14.378906 L 51.128906 14.671875 L 51.035156 14.671875 L 51.128906 14.550781 Z M 51.414062 14.332031 "/>
<path style=" stroke:none;fill-rule:nonzero;fill:rgb(88.627451%,75.686275%,54.509804%);fill-opacity:1;" d="M 43.597656 40.648438 L 43.644531 40.722656 L 43.410156 40.84375 L 43.3125 40.867188 L 43.359375 40.746094 Z M 43.597656 40.648438 "/>
<path style=" stroke:none;fill-rule:nonzero;fill:rgb(83.137255%,69.803922%,49.019608%);fill-opacity:1;" d="M 30.761719 33.886719 L 30.855469 33.886719 L 30.761719 34.03125 L 30.574219 34.203125 L 30.527344 34.132812 Z M 30.761719 33.886719 "/>
<path style=" stroke:none;fill-rule:nonzero;fill:rgb(84.705882%,71.372549%,50.588235%);fill-opacity:1;" d="M 35.261719 21.558594 L 35.355469 21.558594 L 35.546875 21.800781 L 35.453125 21.851562 L 35.261719 21.632812 Z M 35.261719 21.558594 "/>
</g>
</svg>
